<!-- Created with Inkscape (http://www.inkscape.org/) -->
<svg xmlns:rdf="http://www.w3.org/1999/02/22-rdf-syntax-ns#" xmlns="http://www.w3.org/2000/svg" height="63.909939" width="207.28329" version="1.1" xmlns:cc="http://creativecommons.org/ns#" xmlns:dc="http://purl.org/dc/elements/1.1/">
	<metadata>
		<rdf:RDF>
			<cc:Work rdf:about="">
				<dc:format>image/svg+xml</dc:format>
				<dc:type rdf:resource="http://purl.org/dc/dcmitype/StillImage"/>
				<dc:title/>
			</cc:Work>
		</rdf:RDF>
	</metadata>
	<g stroke-linejoin="round" stroke="#000" stroke-linecap="round" transform="translate(-264.92801,-54.692927)">
		<g fill-opacity="0" transform="matrix(0.00899999,0,0,0.00899999,-104.55805,-66.666933)" stroke-width="60">
			<polyline points="43500,17000,43000,17500,43500,18000,43500,17000" fill="none;"/>
		</g>
		<g fill-opacity="0" transform="matrix(0.00899999,0,0,0.00899999,-104.55805,-66.666933)" stroke-width="100">
			<circle d="m 56110,17000 c 0,613.036 -496.964,1110 -1110,1110 -613.036,0 -1110,-496.964 -1110,-1110 0,-613.036 496.964,-1110 1110,-1110 613.036,0 1110,496.964 1110,1110 z" cx="55000" cy="17000" r="1110"/>
		</g>
		<g fill-opacity="0" transform="matrix(0.00899999,0,0,0.00899999,-104.55805,-66.666933)" stroke-width="60" fill="none;">
			<polyline points="55250,16750,56000,17500"/>
			<polyline points="54750,16750,54000,17500,54000,17500"/>
		</g>
		<g fill-opacity="0" transform="matrix(0.00899999,0,0,0.00899999,-104.55805,-66.666933)" stroke-width="200">
			<polyline points="55750,16750,54250,16750,54250,16750" fill="none;"/>
		</g>
		<g transform="matrix(0.00899999,0,0,0.00899999,-104.55805,-66.666933)" stroke-width="60" fill="#000">
			<polyline points="54300,17000,54500,17200,54100,17400,54300,17000,54300,17000" fill-rule="evenodd"/>
			<path d="m56000,17500,1000,0"/>
		</g>
		<g fill-opacity="0" transform="matrix(0.00899999,0,0,0.00899999,-104.55805,-66.666933)" stroke-width="60">
			<path d="m56620,17320-20,20-50,20-40,0-60-20-40-40-10-30-20-80,0-60,20-70,10-40,40-40,60-20,40,0,50,20,20,20"/>
			<path stroke-width="60" d="m56639.762,18054.246-220,0"/>
			<path stroke-width="60" d="m56529.762,18054.246,0-400-40,60-40,40-30,20"/>
			<path d="m55000,16750,0-2250"/>
			<path stroke-width="60" d="m54645.278,15500.794,60,20,10,20,20,40,0,60-20,30-10,20-40,20-150,0,0-400,130,0,40,20,20,20,10,40,0,40-10,30-20,20-40,20-130,0"/>
			<path stroke-width="60" d="m55212.612,15368.283,20-20,30-20,100,0,40,20,20,20,10,40,0,40-10,50-230,230,240,0"/>
			<path d="m54000,17500-1000,0"/>
			<path d="m53420,17150,130,0"/>
			<path d="m53610,17360-190,0,0-400,190,0"/>
			<path stroke-width="60" d="m53399.762,17654.246,240,0-130,150,60,0,40,20,20,20,10,40,0,100-10,30-20,20-40,20-120,0-30-20-20-20"/>
			<path d="m53060,16170-40-20-30-40-60-50-40-20-40,0"/>
			<path d="m52870,16130-40-20-30-40-20-70,0-130,20-80,30-40,40-20,80,0,40,20,30,40,20,80,0,130-20,70-30,40-40,20-80,0"/>
			<path d="m53420,16130-220,0"/>
			<path d="m53310,16130,0-400-40,60-40,40-30,20"/>
			<path d="m56290,15920,60,20,10,20,20,40,0,60-20,30-10,20-40,20-150,0,0-400,130,0,40,20,20,20,10,40,0,40-10,30-20,20-40,20-130,0"/>
			<path d="m56780,16090-20,20-50,20-40,0-60-20-40-40-10-30-20-80,0-60,20-70,10-40,40-40,60-20,40,0,50,20,20,20"/>
			<path d="m57150,15730-190,0-20,190,20-20,30-20,100,0,40,20,20,20,10,40,0,100-10,30-20,20-40,20-100,0-30-20-20-20"/>
			<path d="m57510,15870,0,260"/>
			<path d="m57410,15710-90,290,240,0"/>
			<path d="m57680,15730,260,0-170,400"/>
		</g>
		<g fill-opacity="0" transform="matrix(0.00899999,0,0,0.00899999,-104.55805,-66.666933)" stroke-width="50">
			<path d="m55990,15300,160,0"/>
			<path d="m56070,15590,0-290"/>
			<path d="m56300,15300,60,0,30,20,20,20,20,60,0,100-20,50-20,30-30,10-60,0-20-10-30-30-10-50,0-100,10-60,30-20,20-20"/>
			<path d="m56560,15590,60,0,30-10,10-20,30-40,10-50,0-110-10-30-20-10-20-20-60,0-30,20-10,10-10,30,0,70,10,20,10,20,30,10,60,0,20-10,20-20,10-20"/>
			<path d="m56820,15330,10-10,30-20,70,0,20,20,20,10,10,30,0,30-10,40-170,160,180,0"/>
		</g>
		<g fill-opacity="0" transform="matrix(0.00899999,0,0,0.00899999,-104.55805,-66.666933)" stroke-width="120">
			<rect rx="0" height="800" width="3000" y="14100" x="46000"/>
		</g>
		<g fill-opacity="0" transform="matrix(0.00899999,0,0,0.00899999,-104.55805,-66.666933)" stroke-width="60">
			<path d="m49000,14500,1000,0"/>
			<path d="m46000,14500-1000,0"/>
			<path d="m47430,15430-130-190"/>
			<path d="m47210,15430,0-400,150,0,40,20,10,20,20,40,0,60-20,30-10,20-40,20-150,0"/>
			<path d="m47810,15430-220,0"/>
			<path d="m47700,15430,0-400-40,60-40,40-30,20"/>
			<path d="m46920,14340,20-20,30-20,100,0,40,20,20,20,10,40,0,40-10,50-230,230,240,0"/>
			<path d="m47320,14660,10,20-10,20-20-20,20-20,0,40"/>
			<path d="m47490,14340,20-20,30-20,100,0,40,20,20,20,10,40,0,40-10,50-230,230,240,0"/>
			<path d="m47890,14700,0-400"/>
			<path d="m48110,14700-170-230"/>
			<path d="m48110,14300-220,230"/>
			<path d="m43500,17500,9500,0"/>
		</g>
		<g fill-opacity="0" transform="matrix(0.00899999,0,0,0.00899999,-104.55805,-66.666933)" stroke-width="60">
			<circle d="m 43810,14500 c 0,171.208 -138.792,310 -310,310 -171.208,0 -310,-138.792 -310,-310 0,-171.208 138.792,-310 310,-310 171.208,0 310,138.792 310,310 z" cx="43500" cy="14500" r="310"/>
			<polyline points="43800,14500,44000,14500" fill="none;"/>
			<path d="m44000,14500,1000,0"/>
			<path d="m41640,14690,0-400,150,0,40,20,10,20,20,40,0,60-20,30-10,20-40,20-150,0"/>
			<path d="m42240,14690-220,0"/>
			<path d="m42130,14690,0-400-40,60-40,40-30,20"/>
			<path d="m42380,14290,240,0-130,150,60,0,40,20,20,20,10,40,0,100-10,30-20,20-40,20-120,0-30-20-20-20"/>
		</g>
		<g fill-opacity="0" transform="matrix(0.00899999,0,0,0.00899999,-104.55805,-66.666933)" stroke-width="60">
			<circle d="m 43700,19500 c 0,110.457 -89.543,200 -200,200 -110.457,0 -200,-89.543 -200,-200 0,-110.457 89.543,-200 200,-200 110.457,0 200,89.543 200,200 z" cx="43500" cy="19500" r="200"/>
			<polyline points="44000,19500,43700,19500,43700,19500" fill="none;"/>
		</g>
		<g fill-opacity="0" transform="matrix(0.00899999,0,0,0.00899999,-104.55805,-66.666933)" stroke-width="50">
			<path d="m42800,19900,300-100-300-100"/>
			<path d="m43070,19430,20,10,10,40,0,30-10,50-30,20-30,20-60,10-40,0-60-10-30-20-20-20-20-50,0-30,20-40,10-10"/>
			<path d="m43070,19130,20,10,10,40,0,30-10,50-30,20-30,20-60,10-40,0-60-10-30-20-20-20-20-50,0-30,20-40,10-10"/>
		</g>
		<g fill-opacity="0" transform="matrix(0.00899999,0,0,0.00899999,-104.55805,-66.666933)" stroke-width="60">
			<path d="m5E+4,14500,5000,0"/>
			<path d="m44000,19500,15000,0"/>
			<path d="m57000,17500,2000,0"/>
		</g>
		<g fill-opacity="0" transform="matrix(0.00899999,0,0,0.00899999,-104.55805,-66.666933)" stroke-width="60">
			<rect rx="0" height="3000" width="2000" y="17000" x="61500"/>
			<circle d="m 61500,17500 c 0,193.3 -156.7,350 -350,350 -193.3,0 -350,-156.7 -350,-350 0,-193.3 156.7,-350 350,-350 193.3,0 350,156.7 350,350 z" cx="61150" cy="17500" r="350"/>
			<path d="m60800,17500-1800,0"/>
			<path d="m60430,17340-350,0"/>
			<path d="m60260,17340,0-600-60,90-60,60-60,20"/>
			<circle d="m 61500,19500 c 0,193.3 -156.7,350 -350,350 -193.3,0 -350,-156.7 -350,-350 0,-193.3 156.7,-350 350,-350 193.3,0 350,156.7 350,350 z" cx="61150" cy="19500" r="350"/>
			<path d="m60800,19500-1800,0"/>
			<path d="m60080,18800,30-30,60-30,140,0,60,30,30,30,30,60,0,50-30,90-340,340,370,0"/>
			<path d="m62130,18790-400,0,0-150,20-40,20-10,40-20,60,0,30,20,20,10,20,40,0,150"/>
			<path d="m62130,18190,0,220"/>
			<path d="m62130,18300-400,0,60,40,40,40,20,30"/>
			<path d="m62920,18820,0,130"/>
			<path d="m63130,18950-400,0,0-190"/>
			<path d="m63020,18630,0-190"/>
			<path d="m63130,18670-400-130,400-130"/>
			<path d="m63130,18270-400,0,400-220-400,0"/>
		</g>
	</g>
</svg>
